<svg width="45" height="43" viewBox="0 0 45 43" fill="none" xmlns="http://www.w3.org/2000/svg">
<path d="M31.7767 3.52783H13.18C8.33181 3.52783 4.38818 7.37313 4.38818 12.1004V30.2332C4.38818 34.9605 8.33181 38.8057 13.18 38.8057H31.7767C36.6249 38.8057 40.5685 34.9605 40.5685 30.2332V12.1004C40.5685 7.37313 36.6249 3.52783 31.7767 3.52783ZM16.9066 16.175C15.8935 16.175 15.0433 15.3636 15.0433 14.3758C15.0433 13.3704 15.8754 12.559 16.8885 12.559H16.9066C17.9377 12.559 18.7699 13.3704 18.7699 14.3758C18.7699 15.3636 17.9377 16.175 16.9066 16.175ZM18.2271 18.909V27.9578C18.2271 28.6986 17.6302 29.2807 16.8704 29.2807C16.1287 29.2807 15.5136 28.6986 15.5136 27.9578V18.909C15.5136 18.1682 16.1287 17.5861 16.8704 17.5861C17.6302 17.5861 18.2271 18.1682 18.2271 18.909ZM29.4431 27.9578C29.4431 28.6986 28.828 29.2807 28.0863 29.2807C27.3265 29.2807 26.7295 28.6986 26.7295 27.9578V23.8303C26.7295 22.719 26.4943 22.525 26.3134 22.3662C26.0964 22.1722 25.7165 22.0487 25.2461 22.0311C24.8662 22.0487 24.4863 22.1722 24.2693 22.3662C24.0883 22.525 23.8532 22.719 23.8532 23.8303V27.9578C23.8532 28.6986 23.2562 29.2807 22.4965 29.2807C21.7548 29.2807 21.1397 28.6986 21.1397 27.9578V23.8303C21.1397 22.2251 21.5376 21.2021 22.4602 20.3907C23.1658 19.7733 24.1245 19.4382 25.2461 19.3853C26.4582 19.4382 27.417 19.7733 28.1406 20.3907C29.0451 21.2021 29.4431 22.2251 29.4431 23.8303V27.9578Z" fill="#4E8065"/>
</svg>
